<?xml version="1.0" encoding="iso-8859-1"?>
<!-- Generator: Adobe Illustrator 19.0.0, SVG Export Plug-In . SVG Version: 6.00 Build 0)  -->
<svg version="1.1" id="Layer_1" xmlns="http://www.w3.org/2000/svg" xmlns:xlink="http://www.w3.org/1999/xlink" x="0px" y="0px"
	 viewBox="0 0 512 512" style="enable-background:new 0 0 512 512;" xml:space="preserve">
<circle style="fill:#FFD15D;" cx="256" cy="256" r="256"/>
<path style="fill:#F9B54C;" d="M511.721,267.769L335.145,91.193l-90.35,205.605l-67.624,124.294l90.626,90.626
	C399.803,505.728,505.746,399.777,511.721,267.769z"/>
<path style="fill:#324A5E;" d="M320.791,426.667H191.21c-11.345,0-20.544-9.197-20.544-20.544V105.877
	c0-11.345,9.197-20.544,20.544-20.544h129.581c11.345,0,20.544,9.197,20.544,20.544v300.248
	C341.335,417.47,332.136,426.667,320.791,426.667z"/>
<path style="fill:#2B3B4E;" d="M320.791,85.333h-65.365v341.333h65.365c11.345,0,20.544-9.197,20.544-20.544V105.877
	C341.335,94.53,332.136,85.333,320.791,85.333z"/>
<path style="fill:#E6F3FF;" d="M318.366,382.917h-124.73c-7.449,0-13.486-6.039-13.486-13.486V111.538
	c0-7.449,6.039-13.486,13.486-13.486h124.73c7.449,0,13.486,6.039,13.486,13.486v257.893
	C331.854,376.88,325.815,382.917,318.366,382.917z"/>
<path style="fill:#CFDBE6;" d="M318.366,98.052h-62.94v284.865h62.94c7.449,0,13.486-6.037,13.486-13.486V111.538
	C331.854,104.089,325.815,98.052,318.366,98.052z"/>
<circle style="fill:#2B3B4E;" cx="256" cy="405.98" r="11.205"/>
<path style="fill:#202E3D;" d="M256.002,394.774c-0.193,0-0.383,0.019-0.574,0.029v22.354c0.191,0.009,0.381,0.029,0.574,0.029
	c6.189,0,11.205-5.017,11.205-11.205S262.189,394.774,256.002,394.774z"/>
<path style="fill:#D83E20;" d="M199.425,263.378c0-31.246,56.577-102.364,56.577-102.364s56.577,71.118,56.577,102.364
	s-25.331,56.577-56.577,56.577S199.425,294.624,199.425,263.378z"/>
<path style="fill:#C1321F;" d="M256.002,161.015c0,0-0.203,0.255-0.574,0.727v158.199c0.191,0.002,0.381,0.014,0.574,0.014
	c31.246,0,56.577-25.331,56.577-56.577C312.577,232.133,256.002,161.015,256.002,161.015z"/>
<path style="fill:#FFD15D;" d="M256.148,263.378c0,0,1.377-16.955-10.814-37.909c0,0-27.986,32.592-25.041,58.777
	c2.203,19.597,15.988,35.709,35.709,35.709c19.721,0,34.518-16.024,35.709-35.709c1.343-22.182-7.516-51.157-32.661-69.063
	C259.05,215.183,268.867,253.662,256.148,263.378z"/>
<path style="fill:#F9B54C;" d="M259.05,215.183c0,0,9.818,38.479-2.901,48.195c0,0,0.317-3.955-0.721-10.392v66.939
	c0.193,0.003,0.379,0.029,0.574,0.029c19.721,0,34.518-16.024,35.709-35.709C293.052,262.065,284.194,233.089,259.05,215.183z"/>
<g>
</g>
<g>
</g>
<g>
</g>
<g>
</g>
<g>
</g>
<g>
</g>
<g>
</g>
<g>
</g>
<g>
</g>
<g>
</g>
<g>
</g>
<g>
</g>
<g>
</g>
<g>
</g>
<g>
</g>
</svg>
